<mxfile modified="2020-04-23T09:01:31.148Z" host="app.diagrams.net" agent="5.0 (Windows NT 6.1; Win64; x64) AppleWebKit/537.36 (KHTML, like Gecko) Chrome/80.0.3987.122 Safari/537.36" etag="jvp7uUgEB-d2OcEVT3uU" version="13.0.1" type="github">
  <diagram name="Page-1" id="c37626ed-c26b-45fb-9056-f9ebc6bb27b6">
    <mxGraphModel dx="1406" dy="698" grid="1" gridSize="10" guides="1" tooltips="1" connect="1" arrows="1" fold="1" page="1" pageScale="1" pageWidth="1100" pageHeight="850" background="#ffffff" math="0" shadow="0">
      <root>
        <mxCell id="0" />
        <mxCell id="1" parent="0" />
        <mxCell id="QfznqnuBZ1IlKUxBiRQi-20" value="LAN" style="whiteSpace=wrap;html=1;rounded=0;shadow=0;comic=0;strokeWidth=1;fontFamily=Verdana;fontSize=14;fillColor=#f5f5f5;strokeColor=none;verticalAlign=top;fontStyle=1" parent="1" vertex="1">
          <mxGeometry x="476" y="920" width="1240" height="120" as="geometry" />
        </mxCell>
        <mxCell id="1c7a67bf8fd3230f-83" value="DMZ" style="whiteSpace=wrap;html=1;rounded=0;shadow=0;comic=0;strokeWidth=1;fontFamily=Verdana;fontSize=14;fillColor=#f5f5f5;strokeColor=none;verticalAlign=top;fontStyle=1" parent="1" vertex="1">
          <mxGeometry x="479" y="160" width="1240" height="220" as="geometry" />
        </mxCell>
        <mxCell id="QfznqnuBZ1IlKUxBiRQi-1" value="IHS F5 VIP" style="shape=mxgraph.cisco.misc.vip;html=1;dashed=0;fillColor=#036897;strokeColor=#ffffff;strokeWidth=2;verticalLabelPosition=bottom;verticalAlign=top" parent="1" vertex="1">
          <mxGeometry x="1067" y="195" width="64" height="86" as="geometry" />
        </mxCell>
        <mxCell id="QfznqnuBZ1IlKUxBiRQi-4" value="External Users" style="aspect=fixed;perimeter=ellipsePerimeter;html=1;align=center;shadow=0;dashed=0;spacingTop=3;image;image=img/lib/active_directory/user_accounts.svg;" parent="1" vertex="1">
          <mxGeometry x="1071" y="32" width="50" height="48.5" as="geometry" />
        </mxCell>
        <mxCell id="QfznqnuBZ1IlKUxBiRQi-6" value="IHS" style="rounded=0;whiteSpace=wrap;html=1;fillColor=#f8cecc;strokeColor=#b85450;" parent="1" vertex="1">
          <mxGeometry x="536" y="304" width="190" height="60" as="geometry" />
        </mxCell>
        <mxCell id="QfznqnuBZ1IlKUxBiRQi-7" value="IHS" style="rounded=0;whiteSpace=wrap;html=1;strokeColor=#6c8ebf;fillColor=#dae8fc;" parent="1" vertex="1">
          <mxGeometry x="1504" y="304" width="190" height="60" as="geometry" />
        </mxCell>
        <mxCell id="QfznqnuBZ1IlKUxBiRQi-9" value="ISEC" style="whiteSpace=wrap;html=1;rounded=0;shadow=0;comic=0;strokeWidth=1;fontFamily=Verdana;fontSize=14;fillColor=#f5f5f5;strokeColor=none;verticalAlign=top;fontStyle=1" parent="1" vertex="1">
          <mxGeometry x="479" y="390" width="1240" height="510" as="geometry" />
        </mxCell>
        <mxCell id="QfznqnuBZ1IlKUxBiRQi-11" value="Edge (Zuul)" style="rounded=0;whiteSpace=wrap;html=1;strokeColor=#b85450;fillColor=#f8cecc;" parent="1" vertex="1">
          <mxGeometry x="536" y="532" width="404" height="60" as="geometry" />
        </mxCell>
        <mxCell id="QfznqnuBZ1IlKUxBiRQi-12" value="Edge (Zuul)" style="rounded=0;whiteSpace=wrap;html=1;strokeColor=#6c8ebf;fillColor=#dae8fc;" parent="1" vertex="1">
          <mxGeometry x="1290" y="528" width="404" height="60" as="geometry" />
        </mxCell>
        <mxCell id="QfznqnuBZ1IlKUxBiRQi-13" value="Gateway F5 VIP" style="shape=mxgraph.cisco.misc.vip;html=1;dashed=0;fillColor=#036897;strokeColor=#ffffff;strokeWidth=2;verticalLabelPosition=bottom;verticalAlign=top" parent="1" vertex="1">
          <mxGeometry x="1072" y="437" width="64" height="86" as="geometry" />
        </mxCell>
        <mxCell id="QfznqnuBZ1IlKUxBiRQi-14" value="CX" style="rounded=0;whiteSpace=wrap;html=1;fillColor=#f8cecc;strokeColor=#b85450;" parent="1" vertex="1">
          <mxGeometry x="529" y="812" width="190" height="60" as="geometry" />
        </mxCell>
        <mxCell id="QfznqnuBZ1IlKUxBiRQi-15" value="CX" style="rounded=0;whiteSpace=wrap;html=1;fillColor=#dae8fc;strokeColor=#6c8ebf;" parent="1" vertex="1">
          <mxGeometry x="1504" y="798" width="190" height="60" as="geometry" />
        </mxCell>
        <mxCell id="QfznqnuBZ1IlKUxBiRQi-16" value="Auth (DBS)" style="rounded=0;whiteSpace=wrap;html=1;fillColor=#f8cecc;strokeColor=#b85450;" parent="1" vertex="1">
          <mxGeometry x="536" y="625" width="87" height="60" as="geometry" />
        </mxCell>
        <mxCell id="QfznqnuBZ1IlKUxBiRQi-17" value="Auth (DBS)" style="rounded=0;whiteSpace=wrap;html=1;strokeColor=#6c8ebf;fillColor=#dae8fc;" parent="1" vertex="1">
          <mxGeometry x="1393" y="625" width="87" height="60" as="geometry" />
        </mxCell>
        <mxCell id="6oNJGKLIgyjYE0U5j6M9-1" value="SSO VIP" style="shape=mxgraph.cisco.misc.vip;html=1;dashed=0;fillColor=#036897;strokeColor=#ffffff;strokeWidth=2;verticalLabelPosition=bottom;verticalAlign=top" parent="1" vertex="1">
          <mxGeometry x="1080" y="592" width="64" height="86" as="geometry" />
        </mxCell>
        <mxCell id="6oNJGKLIgyjYE0U5j6M9-2" value="" style="endArrow=classic;startArrow=classic;html=1;entryX=1.016;entryY=0.814;entryDx=0;entryDy=0;entryPerimeter=0;exitX=0;exitY=0;exitDx=0;exitDy=0;" parent="1" source="QfznqnuBZ1IlKUxBiRQi-7" target="QfznqnuBZ1IlKUxBiRQi-1" edge="1">
          <mxGeometry width="50" height="50" relative="1" as="geometry">
            <mxPoint x="1310" y="350" as="sourcePoint" />
            <mxPoint x="1360" y="300" as="targetPoint" />
          </mxGeometry>
        </mxCell>
        <mxCell id="6oNJGKLIgyjYE0U5j6M9-5" value="" style="endArrow=classic;startArrow=classic;html=1;entryX=1;entryY=0;entryDx=0;entryDy=0;exitX=-0.047;exitY=0.826;exitDx=0;exitDy=0;exitPerimeter=0;shadow=0;dashed=1;strokeColor=#FF0000;opacity=35;" parent="1" source="QfznqnuBZ1IlKUxBiRQi-1" target="QfznqnuBZ1IlKUxBiRQi-6" edge="1">
          <mxGeometry width="50" height="50" relative="1" as="geometry">
            <mxPoint x="1120" y="480" as="sourcePoint" />
            <mxPoint x="1170" y="430" as="targetPoint" />
          </mxGeometry>
        </mxCell>
        <mxCell id="6oNJGKLIgyjYE0U5j6M9-7" value="" style="endArrow=classic;startArrow=classic;html=1;entryX=0;entryY=1;entryDx=0;entryDy=0;exitX=1;exitY=0;exitDx=0;exitDy=0;exitPerimeter=0;" parent="1" source="QfznqnuBZ1IlKUxBiRQi-13" target="QfznqnuBZ1IlKUxBiRQi-7" edge="1">
          <mxGeometry width="50" height="50" relative="1" as="geometry">
            <mxPoint x="1139.9920000000002" y="496.999" as="sourcePoint" />
            <mxPoint x="1300" y="450" as="targetPoint" />
          </mxGeometry>
        </mxCell>
        <mxCell id="6oNJGKLIgyjYE0U5j6M9-10" value="" style="endArrow=classic;startArrow=classic;html=1;entryX=1;entryY=0.5;entryDx=0;entryDy=0;entryPerimeter=0;exitX=0.5;exitY=0;exitDx=0;exitDy=0;" parent="1" source="QfznqnuBZ1IlKUxBiRQi-12" target="QfznqnuBZ1IlKUxBiRQi-13" edge="1">
          <mxGeometry width="50" height="50" relative="1" as="geometry">
            <mxPoint x="1260" y="678" as="sourcePoint" />
            <mxPoint x="1310" y="628" as="targetPoint" />
          </mxGeometry>
        </mxCell>
        <mxCell id="6oNJGKLIgyjYE0U5j6M9-11" value="" style="endArrow=classic;startArrow=classic;html=1;entryX=0.25;entryY=1;entryDx=0;entryDy=0;" parent="1" source="QfznqnuBZ1IlKUxBiRQi-16" target="QfznqnuBZ1IlKUxBiRQi-11" edge="1">
          <mxGeometry width="50" height="50" relative="1" as="geometry">
            <mxPoint x="760" y="688" as="sourcePoint" />
            <mxPoint x="810" y="638" as="targetPoint" />
          </mxGeometry>
        </mxCell>
        <mxCell id="6oNJGKLIgyjYE0U5j6M9-12" value="Token Conv." style="rounded=0;whiteSpace=wrap;html=1;fillColor=#f8cecc;strokeColor=#b85450;" parent="1" vertex="1">
          <mxGeometry x="640" y="625" width="87" height="60" as="geometry" />
        </mxCell>
        <mxCell id="6oNJGKLIgyjYE0U5j6M9-13" value="Token Conv." style="rounded=0;whiteSpace=wrap;html=1;direction=south;strokeColor=#6c8ebf;fillColor=#dae8fc;" parent="1" vertex="1">
          <mxGeometry x="1504" y="625" width="87" height="60" as="geometry" />
        </mxCell>
        <mxCell id="6oNJGKLIgyjYE0U5j6M9-14" value="Registry" style="rounded=0;whiteSpace=wrap;html=1;fillColor=#f8cecc;strokeColor=#b85450;" parent="1" vertex="1">
          <mxGeometry x="750" y="625" width="87" height="60" as="geometry" />
        </mxCell>
        <mxCell id="6oNJGKLIgyjYE0U5j6M9-15" value="Registry" style="rounded=0;whiteSpace=wrap;html=1;strokeColor=#6c8ebf;fillColor=#dae8fc;" parent="1" vertex="1">
          <mxGeometry x="1607" y="625" width="87" height="60" as="geometry" />
        </mxCell>
        <mxCell id="6oNJGKLIgyjYE0U5j6M9-16" value="" style="endArrow=classic;startArrow=classic;html=1;" parent="1" source="6oNJGKLIgyjYE0U5j6M9-12" target="QfznqnuBZ1IlKUxBiRQi-11" edge="1">
          <mxGeometry width="50" height="50" relative="1" as="geometry">
            <mxPoint x="780" y="628" as="sourcePoint" />
            <mxPoint x="830" y="588" as="targetPoint" />
          </mxGeometry>
        </mxCell>
        <mxCell id="6oNJGKLIgyjYE0U5j6M9-19" value="" style="endArrow=classic;startArrow=classic;html=1;entryX=0.673;entryY=0.933;entryDx=0;entryDy=0;entryPerimeter=0;" parent="1" source="6oNJGKLIgyjYE0U5j6M9-14" target="QfznqnuBZ1IlKUxBiRQi-11" edge="1">
          <mxGeometry width="50" height="50" relative="1" as="geometry">
            <mxPoint x="950" y="658" as="sourcePoint" />
            <mxPoint x="1000" y="608" as="targetPoint" />
          </mxGeometry>
        </mxCell>
        <mxCell id="6oNJGKLIgyjYE0U5j6M9-23" value="" style="endArrow=classic;startArrow=classic;html=1;entryX=0.25;entryY=1;entryDx=0;entryDy=0;" parent="1" source="QfznqnuBZ1IlKUxBiRQi-17" target="QfznqnuBZ1IlKUxBiRQi-12" edge="1">
          <mxGeometry width="50" height="50" relative="1" as="geometry">
            <mxPoint x="1170" y="728" as="sourcePoint" />
            <mxPoint x="1220" y="678" as="targetPoint" />
          </mxGeometry>
        </mxCell>
        <mxCell id="6oNJGKLIgyjYE0U5j6M9-24" value="" style="endArrow=classic;startArrow=classic;html=1;" parent="1" source="6oNJGKLIgyjYE0U5j6M9-13" target="QfznqnuBZ1IlKUxBiRQi-12" edge="1">
          <mxGeometry width="50" height="50" relative="1" as="geometry">
            <mxPoint x="1492" y="607.2893218813452" as="sourcePoint" />
            <mxPoint x="1492" y="557.2893218813452" as="targetPoint" />
          </mxGeometry>
        </mxCell>
        <mxCell id="6oNJGKLIgyjYE0U5j6M9-25" value="" style="endArrow=classic;startArrow=classic;html=1;entryX=0.864;entryY=1;entryDx=0;entryDy=0;entryPerimeter=0;" parent="1" source="6oNJGKLIgyjYE0U5j6M9-15" target="QfznqnuBZ1IlKUxBiRQi-12" edge="1">
          <mxGeometry width="50" height="50" relative="1" as="geometry">
            <mxPoint x="1550" y="728" as="sourcePoint" />
            <mxPoint x="1600" y="678" as="targetPoint" />
          </mxGeometry>
        </mxCell>
        <mxCell id="6oNJGKLIgyjYE0U5j6M9-28" value="Auth (AIB)" style="rounded=0;whiteSpace=wrap;html=1;fillColor=#dae8fc;strokeColor=#6c8ebf;" parent="1" vertex="1">
          <mxGeometry x="1607" y="718" width="87" height="60" as="geometry" />
        </mxCell>
        <mxCell id="6oNJGKLIgyjYE0U5j6M9-29" value="Auth (AIB)" style="rounded=0;whiteSpace=wrap;html=1;fillColor=#f8cecc;strokeColor=#b85450;" parent="1" vertex="1">
          <mxGeometry x="536" y="718" width="87" height="60" as="geometry" />
        </mxCell>
        <mxCell id="6oNJGKLIgyjYE0U5j6M9-30" value="" style="endArrow=classic;startArrow=classic;html=1;exitX=1;exitY=0.5;exitDx=0;exitDy=0;entryX=0.031;entryY=0.593;entryDx=0;entryDy=0;entryPerimeter=0;shadow=0;dashed=1;strokeColor=#FF0000;opacity=35;" parent="1" source="6oNJGKLIgyjYE0U5j6M9-29" target="6oNJGKLIgyjYE0U5j6M9-1" edge="1">
          <mxGeometry width="50" height="50" relative="1" as="geometry">
            <mxPoint x="880" y="778" as="sourcePoint" />
            <mxPoint x="930" y="728" as="targetPoint" />
          </mxGeometry>
        </mxCell>
        <mxCell id="6oNJGKLIgyjYE0U5j6M9-31" value="" style="endArrow=classic;startArrow=classic;html=1;exitX=0.969;exitY=0.593;exitDx=0;exitDy=0;exitPerimeter=0;shadow=0;dashed=1;strokeColor=#FF0000;opacity=35;" parent="1" source="6oNJGKLIgyjYE0U5j6M9-1" target="6oNJGKLIgyjYE0U5j6M9-28" edge="1">
          <mxGeometry width="50" height="50" relative="1" as="geometry">
            <mxPoint x="1240" y="748" as="sourcePoint" />
            <mxPoint x="1290" y="698" as="targetPoint" />
          </mxGeometry>
        </mxCell>
        <mxCell id="6oNJGKLIgyjYE0U5j6M9-32" value="CFI VIP" style="shape=mxgraph.cisco.misc.vip;html=1;dashed=0;fillColor=#036897;strokeColor=#ffffff;strokeWidth=2;verticalLabelPosition=bottom;verticalAlign=top" parent="1" vertex="1">
          <mxGeometry x="1082" y="778" width="64" height="86" as="geometry" />
        </mxCell>
        <mxCell id="31PAyU2MHmQEK9PxuPvI-1" value="" style="endArrow=classic;startArrow=classic;html=1;exitX=1;exitY=0.5;exitDx=0;exitDy=0;entryX=1.033;entryY=0.421;entryDx=0;entryDy=0;entryPerimeter=0;edgeStyle=elbowEdgeStyle;" parent="1" source="QfznqnuBZ1IlKUxBiRQi-15" target="QfznqnuBZ1IlKUxBiRQi-1" edge="1">
          <mxGeometry width="50" height="50" relative="1" as="geometry">
            <mxPoint x="1160" y="990" as="sourcePoint" />
            <mxPoint x="1210" y="940" as="targetPoint" />
            <Array as="points">
              <mxPoint x="1710" y="650" />
            </Array>
          </mxGeometry>
        </mxCell>
        <mxCell id="31PAyU2MHmQEK9PxuPvI-2" value="" style="endArrow=classic;startArrow=classic;html=1;exitX=1;exitY=0.75;exitDx=0;exitDy=0;entryX=0;entryY=0.5;entryDx=0;entryDy=0;entryPerimeter=0;shadow=0;dashed=1;strokeColor=#FF0000;opacity=35;" parent="1" source="6oNJGKLIgyjYE0U5j6M9-29" target="6oNJGKLIgyjYE0U5j6M9-32" edge="1">
          <mxGeometry width="50" height="50" relative="1" as="geometry">
            <mxPoint x="990" y="828" as="sourcePoint" />
            <mxPoint x="1040" y="778" as="targetPoint" />
          </mxGeometry>
        </mxCell>
        <mxCell id="RRaRMntgKjidEFnBLUo5-1" value="DBS" style="rounded=0;whiteSpace=wrap;html=1;fillColor=#f8cecc;strokeColor=#b85450;" parent="1" vertex="1">
          <mxGeometry x="536" y="948" width="404" height="60" as="geometry" />
        </mxCell>
        <mxCell id="RRaRMntgKjidEFnBLUo5-2" value="DBS" style="rounded=0;whiteSpace=wrap;html=1;fillColor=#dae8fc;strokeColor=#6c8ebf;" parent="1" vertex="1">
          <mxGeometry x="1300" y="948" width="404" height="60" as="geometry" />
        </mxCell>
        <mxCell id="RRaRMntgKjidEFnBLUo5-3" value="" style="endArrow=classic;startArrow=classic;html=1;entryX=0;entryY=1;entryDx=0;entryDy=0;exitX=1;exitY=0.5;exitDx=0;exitDy=0;exitPerimeter=0;" parent="1" source="6oNJGKLIgyjYE0U5j6M9-32" target="6oNJGKLIgyjYE0U5j6M9-28" edge="1">
          <mxGeometry width="50" height="50" relative="1" as="geometry">
            <mxPoint x="1290" y="848" as="sourcePoint" />
            <mxPoint x="1340" y="798" as="targetPoint" />
          </mxGeometry>
        </mxCell>
        <mxCell id="RRaRMntgKjidEFnBLUo5-5" value="" style="endArrow=classic;startArrow=classic;html=1;entryX=0.879;entryY=0.983;entryDx=0;entryDy=0;entryPerimeter=0;exitX=0.884;exitY=0.017;exitDx=0;exitDy=0;exitPerimeter=0;" parent="1" source="RRaRMntgKjidEFnBLUo5-1" target="QfznqnuBZ1IlKUxBiRQi-11" edge="1">
          <mxGeometry width="50" height="50" relative="1" as="geometry">
            <mxPoint x="991" y="948" as="sourcePoint" />
            <mxPoint x="1020" y="638" as="targetPoint" />
            <Array as="points" />
          </mxGeometry>
        </mxCell>
        <mxCell id="RRaRMntgKjidEFnBLUo5-6" value="" style="endArrow=classic;startArrow=classic;html=1;entryX=0.119;entryY=1.033;entryDx=0;entryDy=0;entryPerimeter=0;exitX=0.101;exitY=-0.017;exitDx=0;exitDy=0;exitPerimeter=0;" parent="1" source="RRaRMntgKjidEFnBLUo5-2" target="QfznqnuBZ1IlKUxBiRQi-12" edge="1">
          <mxGeometry width="50" height="50" relative="1" as="geometry">
            <mxPoint x="1190" y="808" as="sourcePoint" />
            <mxPoint x="1240" y="758" as="targetPoint" />
          </mxGeometry>
        </mxCell>
        <mxCell id="n90fWTQ8XHFbxvg9ftpo-2" value="" style="endArrow=classic;startArrow=classic;html=1;entryX=0.5;entryY=1;entryDx=0;entryDy=0;strokeColor=#FF0000;" parent="1" target="QfznqnuBZ1IlKUxBiRQi-6" edge="1">
          <mxGeometry width="50" height="50" relative="1" as="geometry">
            <mxPoint x="631" y="530" as="sourcePoint" />
            <mxPoint x="630" y="440" as="targetPoint" />
          </mxGeometry>
        </mxCell>
        <mxCell id="n90fWTQ8XHFbxvg9ftpo-5" value="" style="endArrow=classic;startArrow=classic;html=1;exitX=0;exitY=0.5;exitDx=0;exitDy=0;edgeStyle=orthogonalEdgeStyle;strokeColor=#FF3333;" parent="1" source="QfznqnuBZ1IlKUxBiRQi-6" edge="1">
          <mxGeometry width="50" height="50" relative="1" as="geometry">
            <mxPoint x="480" y="1010" as="sourcePoint" />
            <mxPoint x="529" y="850" as="targetPoint" />
            <Array as="points">
              <mxPoint x="500" y="334" />
              <mxPoint x="500" y="850" />
              <mxPoint x="529" y="850" />
            </Array>
          </mxGeometry>
        </mxCell>
        <mxCell id="n90fWTQ8XHFbxvg9ftpo-6" value="&lt;h1&gt;&lt;span&gt;Major Release, Alpha&lt;/span&gt;&lt;br&gt;&lt;/h1&gt;&lt;div&gt;&lt;ul&gt;&lt;li&gt;Maintenance page active&lt;/li&gt;&lt;li&gt;Alpha-leg is deployed with new release&lt;/li&gt;&lt;li&gt;Internal testing on-going&lt;/li&gt;&lt;li&gt;Data-centre affinity achieved&lt;/li&gt;&lt;/ul&gt;&lt;/div&gt;" style="text;html=1;strokeColor=none;fillColor=none;spacing=5;spacingTop=-20;whiteSpace=wrap;overflow=hidden;rounded=0;" parent="1" vertex="1">
          <mxGeometry x="690" y="10" width="300" height="120" as="geometry" />
        </mxCell>
        <mxCell id="n90fWTQ8XHFbxvg9ftpo-7" value="Alpha" style="text;html=1;strokeColor=none;fillColor=none;align=center;verticalAlign=middle;whiteSpace=wrap;rounded=0;" parent="1" vertex="1">
          <mxGeometry x="670" y="120" width="40" height="20" as="geometry" />
        </mxCell>
        <mxCell id="n90fWTQ8XHFbxvg9ftpo-8" value="Omega" style="text;html=1;strokeColor=none;fillColor=none;align=center;verticalAlign=middle;whiteSpace=wrap;rounded=0;" parent="1" vertex="1">
          <mxGeometry x="1527.5" y="120" width="40" height="20" as="geometry" />
        </mxCell>
        <mxCell id="n90fWTQ8XHFbxvg9ftpo-9" value="Release Team" style="aspect=fixed;perimeter=ellipsePerimeter;html=1;align=center;shadow=0;dashed=0;spacingTop=3;image;image=img/lib/active_directory/user_accounts.svg;" parent="1" vertex="1">
          <mxGeometry x="606" y="32" width="50" height="48.5" as="geometry" />
        </mxCell>
        <mxCell id="n90fWTQ8XHFbxvg9ftpo-10" value="" style="endArrow=classic;startArrow=classic;html=1;strokeColor=#4D4D4D;shadow=1;" parent="1" source="1c7a67bf8fd3230f-83" edge="1">
          <mxGeometry width="50" height="50" relative="1" as="geometry">
            <mxPoint x="1070" y="160" as="sourcePoint" />
            <mxPoint x="1100" y="110" as="targetPoint" />
          </mxGeometry>
        </mxCell>
        <mxCell id="n90fWTQ8XHFbxvg9ftpo-11" value="" style="endArrow=classic;startArrow=classic;html=1;strokeColor=#FF0000;exitX=0.5;exitY=0;exitDx=0;exitDy=0;rounded=1;" parent="1" source="QfznqnuBZ1IlKUxBiRQi-6" edge="1">
          <mxGeometry width="50" height="50" relative="1" as="geometry">
            <mxPoint x="600" y="290" as="sourcePoint" />
            <mxPoint x="631" y="110" as="targetPoint" />
          </mxGeometry>
        </mxCell>
        <mxCell id="n90fWTQ8XHFbxvg9ftpo-15" value="" style="endArrow=classic;startArrow=classic;html=1;shadow=0;strokeColor=#FF0000;entryX=-0.047;entryY=0.093;entryDx=0;entryDy=0;entryPerimeter=0;dashed=1;opacity=35;" parent="1" target="QfznqnuBZ1IlKUxBiRQi-13" edge="1">
          <mxGeometry width="50" height="50" relative="1" as="geometry">
            <mxPoint x="730" y="362" as="sourcePoint" />
            <mxPoint x="910" y="400" as="targetPoint" />
          </mxGeometry>
        </mxCell>
        <mxCell id="n90fWTQ8XHFbxvg9ftpo-16" value="" style="endArrow=classic;startArrow=classic;html=1;shadow=0;dashed=1;strokeColor=#FF0000;entryX=0.011;entryY=0.633;entryDx=0;entryDy=0;entryPerimeter=0;exitX=0;exitY=0.5;exitDx=0;exitDy=0;exitPerimeter=0;edgeStyle=elbowEdgeStyle;opacity=35;comic=0;" parent="1" source="QfznqnuBZ1IlKUxBiRQi-1" target="QfznqnuBZ1IlKUxBiRQi-14" edge="1">
          <mxGeometry width="50" height="50" relative="1" as="geometry">
            <mxPoint x="1050" y="970" as="sourcePoint" />
            <mxPoint x="1100" y="920" as="targetPoint" />
            <Array as="points">
              <mxPoint x="510" y="540" />
            </Array>
          </mxGeometry>
        </mxCell>
        <mxCell id="n90fWTQ8XHFbxvg9ftpo-19" value="" style="endArrow=classic;startArrow=classic;html=1;entryX=0;entryY=0.5;entryDx=0;entryDy=0;entryPerimeter=0;shadow=0;dashed=1;strokeColor=#FF0000;opacity=35;" parent="1" target="QfznqnuBZ1IlKUxBiRQi-13" edge="1">
          <mxGeometry width="50" height="50" relative="1" as="geometry">
            <mxPoint x="700" y="530" as="sourcePoint" />
            <mxPoint x="1121" y="498" as="targetPoint" />
          </mxGeometry>
        </mxCell>
        <mxCell id="n90fWTQ8XHFbxvg9ftpo-20" value="&lt;h1&gt;SSO&lt;/h1&gt;&lt;p&gt;Both data-centres taken offline via linux FW rules&lt;br&gt;IBB Will fallback to IBB login during deployment&lt;/p&gt;" style="text;html=1;strokeColor=none;fillColor=none;spacing=5;spacingTop=-20;whiteSpace=wrap;overflow=hidden;rounded=0;" parent="1" vertex="1">
          <mxGeometry x="892" y="615" width="190" height="120" as="geometry" />
        </mxCell>
        <mxCell id="n90fWTQ8XHFbxvg9ftpo-24" value="HTTP-MAINT" style="shadow=0;dashed=0;html=1;strokeColor=none;fillColor=#4495D1;labelPosition=center;verticalLabelPosition=bottom;verticalAlign=top;align=center;outlineConnect=0;shape=mxgraph.veeam.script;fontSize=9;" parent="1" vertex="1">
          <mxGeometry x="1520" y="315.5" width="30" height="30" as="geometry" />
        </mxCell>
        <mxCell id="n90fWTQ8XHFbxvg9ftpo-25" value="HTTP-MAINT" style="shadow=0;dashed=0;html=1;strokeColor=none;fillColor=#4495D1;labelPosition=center;verticalLabelPosition=bottom;verticalAlign=top;align=center;outlineConnect=0;shape=mxgraph.veeam.script;fontSize=9;" parent="1" vertex="1">
          <mxGeometry x="675" y="315.5" width="30" height="30" as="geometry" />
        </mxCell>
        <mxCell id="n90fWTQ8XHFbxvg9ftpo-26" value="&lt;h1&gt;CFI&lt;/h1&gt;&lt;p&gt;Linux Firewall rule blocks requests to Alpha auth service so VIP only directs to Omega.&lt;/p&gt;" style="text;html=1;strokeColor=none;fillColor=none;spacing=5;spacingTop=-20;whiteSpace=wrap;overflow=hidden;rounded=0;" parent="1" vertex="1">
          <mxGeometry x="897" y="800" width="190" height="120" as="geometry" />
        </mxCell>
        <mxCell id="n90fWTQ8XHFbxvg9ftpo-28" value="&lt;h1&gt;IHS&lt;/h1&gt;&lt;p&gt;Maintenance configuration is active&lt;br&gt;External requests receive maintenance page&lt;br&gt;&lt;span&gt;Alpha OS Firewall Rule blocks requests from IHS VIP&lt;br&gt;Deployment to Alpha can start&lt;/span&gt;&lt;/p&gt;" style="text;html=1;strokeColor=none;fillColor=none;spacing=5;spacingTop=-20;whiteSpace=wrap;overflow=hidden;rounded=0;fontSize=9;" parent="1" vertex="1">
          <mxGeometry x="870" y="290" width="190" height="116" as="geometry" />
        </mxCell>
        <mxCell id="n90fWTQ8XHFbxvg9ftpo-30" value="&lt;h1&gt;Edge&lt;/h1&gt;&lt;p&gt;Linux firewall rules applied to only allow requests from CX, DBS and Auth VMs&lt;br&gt;VIP Traffic is blocked&lt;/p&gt;" style="text;html=1;strokeColor=none;fillColor=none;spacing=5;spacingTop=-20;whiteSpace=wrap;overflow=hidden;rounded=0;" parent="1" vertex="1">
          <mxGeometry x="656" y="403" width="190" height="120" as="geometry" />
        </mxCell>
      </root>
    </mxGraphModel>
  </diagram>
</mxfile>
